<?xml version="1.0" encoding="UTF-8"?>
<svg width="204px" height="66px" viewBox="0 0 204 66" version="1.1" xmlns="http://www.w3.org/2000/svg" xmlns:xlink="http://www.w3.org/1999/xlink">
    <!-- Generator: sketchtool 51.1 (57501) - http://www.bohemiancoding.com/sketch -->
    <title>225FA5B2-E96E-4B1B-930B-F2F8144E1AC8</title>
    <desc>Created with sketchtool.</desc>
    <defs>
        <polygon id="path-1" points="0 65.6013303 203.423868 65.6013303 203.423868 0.000296629213 0 0.000296629213"></polygon>
    </defs>
    <g id="Design-desktop" stroke="none" stroke-width="1" fill="none" fill-rule="evenodd">
        <g id="Contact-information" transform="translate(-269.000000, -43.000000)">
            <g id="TOP" transform="translate(269.000000, 2.000000)">
                <g id="Logo" transform="translate(0.000000, 41.000000)">
                    <path d="M90.0266198,39.6379685 C92.540378,39.6379685 93.8286418,37.205609 93.8286418,32.7465303 C93.8286418,28.2867101 92.540378,25.8854966 90.0266198,25.8854966 L86.6012132,25.8854966 L86.6012132,39.6379685 L90.0266198,39.6379685 Z M82.6415209,22.548418 L90.7178286,22.548418 C93.7344879,22.548418 97.8824879,24.2013843 97.8824879,32.7465303 C97.8824879,41.2909348 93.7344879,42.9750472 90.7178286,42.9750472 L82.6415209,42.9750472 L82.6415209,22.548418 Z" id="Fill-1" fill="#E20714"></path>
                    <mask id="mask-2" fill="white">
                        <use xlink:href="#path-1"></use>
                    </mask>
                    <g id="Clip-4"></g>
                    <polygon id="Fill-3" fill="#E20714" mask="url(#mask-2)" points="100.664659 42.9751955 104.624352 42.9751955 104.624352 22.5485663 100.664659 22.5485663"></polygon>
                    <polygon id="Fill-5" fill="#E20714" mask="url(#mask-2)" points="107.209473 22.5484921 111.294703 22.5484921 115.096725 39.6380427 115.663143 39.6380427 119.464418 22.5484921 123.549648 22.5484921 118.679802 42.9751213 112.080066 42.9751213"></polygon>
                    <polygon id="Fill-6" fill="#E20714" mask="url(#mask-2)" points="126.168097 22.5484921 138.203349 22.5484921 138.203349 25.9478629 130.127789 25.9478629 130.127789 30.8133236 138.203349 30.8133236 138.203349 34.2119528 130.127789 34.2119528 130.127789 39.5757506 138.203349 39.5757506 138.203349 42.9751213 126.168097 42.9751213"></polygon>
                    <path d="M144.183165,37.0185843 C144.183165,38.5781124 144.434989,40.199191 147.420264,40.199191 C150.625231,40.199191 150.814286,37.9544494 150.814286,37.2684944 C150.814286,35.7082247 150.090945,34.9918652 148.52022,34.710809 L145.094813,34.0248539 C141.103736,33.213573 140.443912,30.3763146 140.443912,28.1931236 C140.443912,24.1700899 143.114593,22.1114831 147.420264,22.1114831 C152.196703,22.1114831 154.490769,23.8586292 154.490769,28.3807416 L150.531077,28.3807416 C150.531077,26.5713034 149.996791,25.3551236 147.420264,25.3551236 C145.094813,25.3551236 144.340835,26.6647416 144.340835,28.0685393 C144.340835,29.4404494 144.93789,30.1575506 146.414462,30.4386067 L150.499692,31.2491461 C154.082022,31.9358427 154.836747,34.5239326 154.836747,36.894 C154.836747,39.0453034 154.20756,43.4116854 147.420264,43.4116854 C142.203692,43.4116854 140.22422,41.2284944 140.22422,37.0185843 L144.183165,37.0185843 Z" id="Fill-7" fill="#E20714" mask="url(#mask-2)"></path>
                    <path d="M164.89462,40.0746809 C167.974048,40.0746809 168.791543,38.2348382 168.791543,34.3059843 L168.791543,31.2180742 C168.791543,27.2892202 167.974048,25.448636 164.89462,25.448636 C161.783807,25.448636 160.997697,27.2892202 160.997697,31.2180742 L160.997697,34.3059843 C160.997697,38.2348382 161.783807,40.0746809 164.89462,40.0746809 Z M157.00662,31.124636 C157.00662,23.7964112 160.52618,22.1115573 164.89462,22.1115573 C169.263059,22.1115573 172.78262,23.7964112 172.78262,31.124636 L172.78262,34.3994225 C172.78262,41.7587933 169.231675,43.4117596 164.89462,43.4117596 C160.557565,43.4117596 157.00662,41.7587933 157.00662,34.3994225 L157.00662,31.124636 Z" id="Fill-8" fill="#E20714" mask="url(#mask-2)"></path>
                    <polygon id="Fill-9" fill="#E20714" mask="url(#mask-2)" points="175.832681 22.5484921 187.742396 22.5484921 187.742396 25.9478629 179.792374 25.9478629 179.792374 30.8133236 187.742396 30.8133236 187.742396 34.2119528 179.792374 34.2119528 179.792374 42.9751213 175.832681 42.9751213"></polygon>
                    <polygon id="Fill-10" fill="#E20714" mask="url(#mask-2)" points="194.845257 25.9478629 190.257125 25.9478629 190.257125 22.5484921 203.423719 22.5484921 203.423719 25.9478629 198.804949 25.9478629 198.804949 42.9751213 194.845257 42.9751213"></polygon>
                    <path d="M33.0571912,61.6018045 C17.0532791,61.6018045 4.03314725,48.6821191 4.03314725,32.8013326 C4.03314725,16.9198045 17.0532791,3.99863596 33.0571912,3.99863596 C49.0581143,3.99863596 62.0760044,16.9198045 62.0760044,32.8013326 C62.0760044,48.6821191 49.0581143,61.6018045 33.0571912,61.6018045 M33.0571912,7.41573034e-05 C14.8287077,7.41573034e-05 0.000224175824,14.7151079 0.000224175824,32.8013326 C0.000224175824,50.8875573 14.8287077,65.6011079 33.0571912,65.6011079 C51.2819385,65.6011079 66.1089275,50.8875573 66.1089275,32.8013326 C66.1089275,14.7151079 51.2819385,7.41573034e-05 33.0571912,7.41573034e-05" id="Fill-11" fill="#E20714" mask="url(#mask-2)"></path>
                    <path d="M46.2847604,45.1262022 L55.9101231,35.5762247 C56.6805407,34.8116629 57.0661231,33.8068315 57.0661231,32.8005169 C57.0661231,31.7949438 56.6805407,30.7886292 55.9101231,30.0240674 L46.2847604,20.4748315 C45.2079692,19.4062247 43.0812879,18.5326517 41.5583868,18.5326517 L20.5613319,18.5326517 L20.5613319,22.5453034 L41.5568923,22.5453034 C42.1584308,22.5453034 42.9998374,22.8908764 43.4250242,23.313573 L51.7150462,31.5368764 C52.418211,32.2346966 52.418211,33.3670787 51.7150462,34.0648989 L43.4250242,42.2882022 C43.0566286,42.6530562 42.0799692,43.0557303 41.5583868,43.0557303 L20.5613319,43.0557303 L20.5613319,47.0691236 L41.5583868,47.0691236 C43.1619912,47.0691236 45.1496835,46.2511685 46.2847604,45.1262022" id="Fill-12" fill="#E20714" mask="url(#mask-2)"></path>
                    <path d="M21.8317363,32.8008135 C21.8317363,31.7952404 21.4461538,30.7911506 20.674989,30.0258472 L13.129978,22.524836 L10.2874286,25.3954652 L16.875956,31.9316899 C17.3601758,32.4114876 17.3601758,33.1901393 16.875956,33.6699371 L10.2874286,40.2054202 L13.1464176,43.0449034 L20.674989,35.5750382 C21.4461538,34.8104764 21.8317363,33.8049034 21.8317363,32.8008135" id="Fill-13" fill="#E20714" mask="url(#mask-2)"></path>
                </g>
            </g>
        </g>
    </g>
</svg>